Ten finalists remain to compete for the title of Food Network Star. 

This week, each finalist must elevate iconic food-court food while adapting to the limitations of a kiosk. 

The challenge is taken to another level when they learn they'll be feeding Iron Chef Geoffrey Zakarian in addition to 150 hungry shoppers! 

Tensions mount as Zakarian provides an Iron Chef-worthy secret ingredient that the finalists will have to incorporate in their dishes.

The.Next.Food.Network.Star.S08E06-Iron.Chef.Food.Court.mp4

Format                                   : MPEG-4
Format profile                           : Base Media
File size                                : 418 MiB
Duration                                 : 42mn 6s
Overall bit rate mode                    : Variable
Overall bit rate                         : 1 386 Kbps


Video
ID                                       : 1
Format                                   : AVC
Format/Info                              : Advanced Video Codec
Format profile                           : Baseline@L3.0
Format settings, CABAC                   : No
Format settings, ReFrames                : 1 frame
Format settings, GOP                     : M=1, N=12
Codec ID                                 : avc1
Codec ID/Info                            : Advanced Video Coding
Duration                                 : 42mn 6s
Bit rate mode                            : Variable
Bit rate                                 : 1 254 Kbps
Maximum bit rate                         : 1 500 Kbps
Width                                    : 640 pixels
Height                                   : 360 pixels
Display aspect ratio                     : 16:9
Frame rate mode                          : Constant
Frame rate                               : 29.970 fps
Original frame rate                      : 24.000 fps
Color space                              : YUV
Chroma subsampling                       : 4:2:0
Bit depth                                : 8 bits
Scan type                                : Progressive
Bits/(Pixel*Frame)                       : 0.182
Stream size                              : 378 MiB (90%)


Audio
ID                                       : 2
Format                                   : AAC
Format/Info                              : Advanced Audio Codec
Format profile                           : LC
Codec ID                                 : 40
Duration                                 : 42mn 6s
Bit rate mode                            : Variable
Bit rate                                 : 128 Kbps
Channel(s)                               : 2 channels
Channel positions                        : Front: L R
Sampling rate                            : 44.1 KHz
Compression mode                         : Lossy
Stream size                              : 38.5 MiB (9%)

Apologies for the tinny audio, source only had 64kbps audio 